<?xml version="1.0" standalone="no"?>
<!DOCTYPE svg PUBLIC "-//W3C//DTD SVG 20010904//EN"
 "http://www.w3.org/TR/2001/REC-SVG-20010904/DTD/svg10.dtd">
<svg version="1.0" xmlns="http://www.w3.org/2000/svg"
 width="956.000000pt" height="574.000000pt" viewBox="0 0 956.000000 574.000000"
 preserveAspectRatio="xMidYMid meet">

<g transform="translate(0.000000,574.000000) scale(0.100000,-0.100000)"
fill="#000000" stroke="none">
<path d="M2757 5551 c-63 -41 -179 -158 -200 -203 -21 -45 -22 -90 -2 -128 14
-28 78 -72 120 -83 11 -3 39 -11 63 -17 37 -10 41 -13 32 -30 -23 -44 -5 -103
47 -152 54 -51 186 -101 326 -123 l38 -6 -20 -27 c-10 -15 -25 -46 -32 -70
-11 -37 -10 -50 5 -99 24 -74 95 -147 160 -165 37 -10 45 -16 41 -30 -10 -30
30 -60 77 -56 51 4 59 20 17 33 -41 13 -39 27 8 43 57 19 79 45 67 79 -15 43
-64 44 -105 3 -38 -38 -66 -35 -123 12 -64 52 -81 122 -51 196 25 59 53 82 99
82 63 1 208 36 264 64 86 44 130 120 83 146 -61 32 -177 -2 -309 -90 l-87 -57
-85 8 c-211 21 -340 83 -340 164 0 54 16 64 124 81 222 33 397 80 523 140 143
68 193 149 121 195 -29 18 -45 20 -123 16 -177 -8 -384 -102 -632 -286 -30
-22 -34 -23 -97 -12 -37 7 -82 19 -100 28 -101 48 -61 151 104 273 69 51 96
81 83 94 -14 14 -51 4 -96 -23z m813 -149 c0 -44 -179 -113 -427 -168 -133
-29 -129 -28 -112 -8 29 35 207 113 363 159 80 24 176 33 176 17z"/>
<path d="M7430 4165 l0 -515 375 0 375 0 0 515 0 515 -375 0 -375 0 0 -515z
m685 433 c4 -4 10 -60 13 -124 l5 -117 -49 7 c-27 3 -99 9 -160 12 l-111 7 -7
-189 c-3 -104 -9 -263 -13 -353 l-6 -164 -81 7 c-45 3 -111 6 -148 6 l-68 0 0
460 0 461 309 -3 c170 -2 313 -6 316 -10z m-120 -313 c139 -21 135 -19 135
-68 0 -54 -8 -65 -50 -69 l-35 -3 -3 -227 -2 -228 -80 0 -80 0 0 305 c0 168 3
305 8 305 4 0 52 -7 107 -15z m138 -323 c4 -53 7 -136 7 -184 0 -87 0 -88 -25
-88 -25 0 -25 1 -25 78 0 156 12 300 25 296 8 -3 14 -41 18 -102z"/>
<path d="M8230 4160 c0 -409 3 -520 13 -521 6 -1 236 -2 509 -3 l498 -1 0 523
0 522 -510 0 -510 0 0 -520z m960 147 c0 -167 3 -372 7 -455 l6 -152 -180 0
-181 0 -33 83 c-117 291 -282 477 -466 526 l-43 12 0 143 0 144 445 1 445 2 0
-304z m-827 -88 c72 -37 164 -117 222 -195 54 -71 146 -248 159 -306 l6 -28
-123 0 -122 0 -14 58 c-18 80 -74 182 -137 249 l-54 58 0 93 c0 57 4 92 10 92
6 0 30 -10 53 -21z m-21 -318 c28 -22 81 -118 96 -172 10 -36 9 -37 -20 -43
-17 -3 -50 -6 -74 -6 l-44 0 0 120 c0 66 4 120 9 120 4 0 19 -9 33 -19z"/>
<path d="M5608 4642 l-668 -2 0 -1775 0 -1775 1140 0 1140 0 0 1775 0 1775
-332 1 c-183 0 -396 1 -473 2 -77 1 -440 1 -807 -1z m864 -58 l46 -6 4 -122
c4 -98 9 -131 27 -174 25 -56 76 -108 117 -118 47 -12 124 3 194 38 39 19 70
33 70 32 0 -1 -15 -33 -34 -71 -61 -123 -81 -204 -81 -328 0 -138 21 -191 102
-265 30 -28 59 -50 64 -50 5 0 -2 -17 -16 -37 -86 -126 -74 -345 25 -487 l40
-57 -36 -42 c-88 -103 -154 -301 -154 -464 0 -112 13 -179 51 -259 l29 -62
-32 -33 c-73 -79 -85 -134 -44 -211 l23 -44 -64 -34 c-74 -38 -112 -85 -120
-149 l-6 -41 -52 0 c-156 0 -365 -127 -467 -284 l-38 -59 -26 59 c-44 100
-107 179 -166 208 -124 62 -271 13 -516 -171 l-123 -93 8 68 c5 37 8 123 7
192 -1 190 -38 279 -164 392 l-60 54 44 31 c55 39 117 121 147 193 33 79 34
237 2 296 -21 40 -87 107 -114 116 -8 3 6 24 42 60 76 75 103 133 107 230 4
65 0 85 -21 131 -14 30 -41 73 -62 96 l-37 41 45 45 c67 66 90 136 84 245 -5
94 -30 168 -78 235 l-31 42 27 27 c54 54 70 109 69 236 -1 129 -22 204 -74
263 l-28 32 76 -3 c41 -2 96 2 120 9 64 18 125 79 146 149 10 30 19 61 22 69
3 9 17 2 45 -24 61 -55 156 -113 213 -130 27 -8 82 -15 121 -15 106 0 188 43
291 153 89 95 120 107 236 91z"/>
<path d="M6010 4086 c-52 -15 -126 -51 -135 -66 -12 -19 -24 -10 -27 23 l-3
32 -210 -4 c-115 -2 -213 -5 -217 -8 -5 -2 -8 -114 -8 -249 l0 -244 81 0 81 0
-6 -147 c-4 -82 -11 -301 -16 -488 -5 -187 -13 -431 -16 -543 l-7 -202 -53 0
-52 0 5 -252 c3 -139 6 -254 7 -255 1 -2 103 0 227 4 l224 6 -4 45 c-3 42 -2
44 13 30 22 -22 112 -64 168 -78 76 -20 262 -8 333 20 80 31 178 129 223 222
66 139 111 406 99 598 -12 199 -59 339 -141 423 -53 55 -105 83 -199 106 l-71
17 36 22 c99 61 150 196 150 397 0 259 -98 483 -250 572 -53 31 -161 40 -232
19z m-198 -113 l3 -52 43 29 c75 50 148 73 237 73 100 1 155 -23 219 -94 81
-90 111 -203 111 -419 0 -137 -3 -163 -24 -230 -30 -91 -90 -158 -166 -185
-65 -24 -68 -26 -60 -67 l7 -35 123 -10 c91 -8 135 -16 169 -33 112 -54 165
-226 166 -535 0 -378 -92 -582 -296 -655 -56 -20 -88 -24 -174 -25 -92 0 -112
3 -160 26 -30 14 -76 47 -102 73 -64 64 -82 60 -86 -20 l-3 -61 -61 -7 c-33
-3 -110 -6 -169 -6 l-109 0 0 200 0 200 59 0 59 0 6 143 c7 170 26 1101 26
1239 l0 97 -80 7 -80 7 5 111 c6 120 16 255 18 257 10 6 304 34 309 30 4 -3 8
-29 10 -58z"/>
<path d="M5974 3761 c-18 -4 -48 -18 -68 -30 l-36 -23 0 -224 0 -224 90 0
c131 0 195 34 241 127 34 72 32 191 -6 268 -42 87 -130 129 -221 106z m106
-56 c122 -63 132 -303 15 -375 -36 -22 -152 -44 -179 -34 -14 5 -15 28 -10
173 7 182 10 189 79 232 36 23 57 24 95 4z"/>
<path d="M6005 2748 c-16 -6 -54 -25 -82 -42 -51 -30 -53 -32 -54 -76 0 -25
-4 -137 -9 -250 -4 -113 -7 -207 -5 -209 11 -11 140 -30 203 -31 120 0 197 52
234 158 19 56 16 217 -5 279 -48 138 -168 211 -282 171z m134 -53 c81 -41 116
-137 109 -290 -9 -173 -47 -215 -196 -215 -43 0 -93 5 -111 11 -36 13 -35 1
-21 267 6 116 13 179 22 189 41 51 138 69 197 38z"/>
<path d="M3618 4633 l-298 -3 0 -25 0 -25 478 0 479 0 6 -287 c4 -157 7 -370
7 -473 0 -223 4 -252 34 -248 l21 3 3 533 2 532 -217 -2 c-120 -2 -352 -4
-515 -5z"/>
<path d="M430 2833 l0 -1793 1050 0 1050 0 -2 1790 -3 1790 -1048 3 -1047 2 0
-1792z m2023 -11 l2 -1742 -977 0 -978 0 0 1738 c0 956 3 1742 7 1745 3 4 442
6 975 4 l968 -2 3 -1743z"/>
<path d="M1010 4179 c-80 -32 -155 -63 -167 -68 -20 -9 -20 -12 -8 -48 l13
-38 -63 -25 c-35 -14 -66 -28 -70 -32 -4 -3 11 -44 33 -90 127 -268 192 -649
192 -1132 0 -394 -43 -799 -115 -1090 -14 -54 -25 -101 -25 -102 0 -2 101 -4
224 -4 l225 0 6 58 c10 90 10 89 73 98 l57 9 5 265 5 264 49 -94 c48 -93 318
-548 381 -643 l32 -47 165 124 c92 69 169 130 173 136 4 6 -2 22 -14 34 -27
28 -26 33 5 80 l26 38 -36 30 c-122 101 -373 545 -498 883 l-29 79 22 41 c27
48 260 397 393 588 62 88 94 142 89 150 -26 42 -266 347 -273 347 -5 0 -21
-16 -36 -35 -30 -39 -37 -38 -62 12 l-19 35 -55 -98 c-85 -152 -242 -441 -281
-519 l-35 -70 -5 35 c-4 19 -9 67 -12 105 -8 103 -59 339 -109 515 -65 225
-79 265 -96 267 -8 1 -80 -25 -160 -58z m140 -319 c81 -335 126 -572 133 -705
l2 -50 66 100 c67 102 225 369 339 573 34 62 66 115 70 117 6 4 174 -203 209
-259 12 -19 10 -29 -24 -96 -42 -84 -286 -491 -369 -616 l-54 -82 47 -104
c106 -232 394 -744 528 -937 24 -35 41 -67 36 -71 -6 -6 -107 -84 -259 -202
-11 -8 -60 73 -299 502 -47 85 -128 239 -180 342 -59 117 -96 181 -99 170 -6
-21 -31 -250 -45 -422 -41 -484 -46 -519 -65 -532 -14 -10 -148 -10 -250 -1
-72 6 -77 8 -73 27 56 246 82 399 109 646 17 158 17 739 0 895 -31 280 -84
526 -150 703 l-31 84 47 20 c26 11 90 40 142 64 52 24 100 43 107 43 7 1 32
-84 63 -209z"/>
<path d="M2770 4619 c-74 -3 -138 -7 -142 -8 -5 -1 1 -1901 6 -1908 1 -1 230
-3 509 -3 279 -1 507 -3 507 -6 0 -2 -29 -17 -64 -33 -142 -64 -330 -219 -437
-361 -62 -81 -124 -204 -146 -290 -9 -38 -17 -103 -17 -155 1 -314 211 -532
586 -606 160 -32 453 -29 648 7 289 52 504 187 593 374 37 76 67 212 67 294
-1 132 -59 296 -143 405 -120 156 -400 300 -638 327 -61 7 -88 18 -75 31 4 4
78 10 164 13 l157 5 3 213 2 212 -28 0 c-29 0 -29 -1 -35 -67 -4 -38 -7 -119
-7 -180 l0 -113 -42 -1 c-24 0 -85 -4 -136 -7 l-92 -7 -16 47 c-37 113 -149
188 -280 188 l-65 0 18 -27 c32 -48 44 -85 50 -155 l6 -68 -429 0 c-236 0
-473 3 -526 7 l-98 6 0 904 0 903 43 2 c23 1 51 3 62 4 11 1 82 2 158 3 l137
1 0 30 0 30 -82 -2 c-46 -1 -144 -5 -218 -9z m1064 -1691 c73 -38 120 -106
142 -205 l16 -72 46 -6 c253 -34 524 -170 653 -329 97 -119 140 -242 141 -397
0 -309 -170 -519 -489 -604 -163 -44 -445 -57 -663 -31 -231 28 -386 86 -492
185 -102 94 -146 195 -155 357 -7 126 12 220 67 328 116 227 376 444 604 503
l66 18 0 70 c0 62 -15 144 -35 197 -6 14 -2 15 36 7 23 -5 51 -15 63 -21z"/>
<path d="M3460 2196 c0 -62 3 -141 6 -175 l7 -61 156 0 c86 0 173 -3 195 -7
l39 -6 -5 -131 c-4 -111 -9 -142 -33 -206 -22 -59 -29 -97 -32 -178 l-4 -102
198 2 198 3 3 70 c2 54 -1 78 -16 105 -38 70 -59 244 -46 390 l7 83 193 -7
194 -7 0 170 0 171 -530 0 -530 0 0 -114z m1020 2 c0 -40 -3 -97 -6 -125 l-7
-53 -195 0 -195 0 7 -186 c7 -194 25 -321 51 -360 8 -13 15 -37 15 -54 l0 -30
-156 0 -156 0 5 68 c3 37 13 92 22 122 23 79 45 242 45 336 l0 82 -132 7 c-73
4 -163 5 -201 4 l-67 -4 0 126 c0 69 3 129 7 132 3 4 222 7 485 7 l478 0 0
-72z"/>
<path d="M3815 4530 c-25 -10 -55 -44 -83 -92 -25 -44 -21 -45 43 -18 97 42
131 85 86 110 -22 11 -20 11 -46 0z"/>
<path d="M2927 4493 c-13 -13 -7 -31 18 -47 35 -23 125 -57 125 -47 0 4 -19
29 -43 55 -41 43 -81 59 -100 39z"/>
<path d="M3474 4346 c-225 -82 -436 -317 -529 -591 -63 -186 -102 -528 -76
-656 26 -126 99 -230 191 -273 37 -17 64 -21 145 -21 92 0 105 3 150 29 65 38
196 169 274 276 295 398 382 793 229 1033 -55 85 -168 170 -285 211 -35 12
-44 11 -99 -8z m166 -228 c19 -13 45 -44 58 -71 50 -96 38 -305 -26 -467 -74
-186 -283 -470 -385 -521 -21 -11 -56 -21 -76 -21 -86 -1 -113 43 -119 192
-11 280 109 599 303 808 32 35 74 72 94 82 50 26 110 25 151 -2z"/>
<path d="M4105 4220 c-11 -4 -33 -13 -50 -20 l-30 -12 45 -18 c25 -11 64 -19
88 -19 36 -1 44 3 54 24 8 19 8 28 -2 40 -13 16 -72 19 -105 5z"/>
<path d="M2775 4129 c-4 -12 -2 -26 4 -32 13 -13 152 -26 144 -14 -3 5 -23 22
-45 38 -49 35 -94 39 -103 8z"/>
<path d="M3996 3878 c-35 -298 -48 -349 -148 -586 -61 -142 -68 -184 -22 -127
21 27 103 221 133 315 32 103 73 440 53 440 -6 0 -13 -19 -16 -42z"/>
<path d="M4097 3773 c-4 -6 -14 -56 -21 -110 -22 -155 -42 -217 -117 -355 -85
-158 -121 -236 -116 -251 8 -26 198 296 223 378 33 110 58 379 31 338z"/>
<path d="M4530 3723 c-23 -9 -60 -45 -76 -74 -38 -75 -36 -164 6 -221 l21 -28
-29 0 c-15 0 -88 5 -161 11 -126 10 -173 7 -157 -9 4 -4 80 -14 169 -22 130
-12 162 -18 162 -30 0 -22 -47 -24 -223 -10 -136 11 -175 10 -161 -4 2 -2 67
-11 144 -20 77 -9 158 -19 180 -22 l40 -6 0 -57 c1 -131 88 -165 221 -85 31
19 61 34 66 34 25 0 73 48 94 94 27 59 31 112 9 144 -14 19 -14 24 1 47 23 35
14 108 -17 141 -27 29 -80 54 -115 54 -13 0 -24 4 -24 10 0 5 -20 21 -43 35
-42 24 -75 30 -107 18z m108 -74 c1 -9 -9 -21 -22 -27 -15 -7 -23 -17 -20 -25
5 -14 15 -13 110 8 26 6 37 2 66 -24 20 -17 38 -39 41 -50 8 -33 -19 -75 -71
-111 -29 -19 -52 -38 -52 -42 0 -14 55 -8 77 7 20 14 23 13 37 -7 21 -30 20
-66 -4 -105 -22 -38 -46 -52 -103 -62 -32 -5 -42 -11 -40 -25 2 -24 -54 -56
-98 -56 -52 0 -72 27 -77 103 -4 61 -3 63 42 115 25 30 46 57 46 62 0 5 -13
11 -30 15 -16 4 -41 21 -56 38 -22 26 -25 38 -21 74 5 49 57 135 90 150 25 13
80 -12 85 -38z"/>
<path d="M7430 2975 l0 -595 910 0 910 0 0 595 0 595 -910 0 -910 0 0 -595z
m360 108 c0 -230 -3 -469 -7 -530 l-6 -113 -144 0 -143 0 0 525 0 524 88 4
c48 1 115 4 150 5 l62 2 0 -417z m247 40 c-4 -207 -7 -445 -7 -530 l0 -153
-80 0 -80 0 0 193 c0 107 3 343 7 525 l6 331 46 4 c25 2 61 4 80 5 l34 2 -6
-377z m437 366 c13 -13 26 -237 26 -453 0 -237 -9 -395 -31 -528 l-11 -68
-184 0 -184 0 0 525 0 524 63 4 c80 5 315 3 321 -4z m353 -74 c6 -44 17 -148
23 -231 18 -227 -8 -500 -65 -691 l-16 -53 -130 0 c-129 0 -129 0 -124 23 13
54 36 234 46 362 11 134 6 549 -8 638 l-5 38 133 -3 133 -3 13 -80z m356 -187
c4 -149 7 -388 7 -530 l0 -258 -166 0 -166 0 6 33 c45 213 70 562 56 781 -9
133 -13 168 -26 218 -5 15 6 18 98 21 57 1 121 4 144 5 l41 2 6 -272z"/>
<path d="M7430 1700 l0 -610 905 0 905 0 0 610 0 610 -905 0 -905 0 0 -610z
m343 458 c4 -62 7 -234 7 -382 l0 -269 118 6 c137 7 234 26 336 65 230 90 427
317 547 630 l24 62 187 0 188 0 0 -565 0 -565 -829 0 c-456 0 -836 3 -845 6
-14 6 -16 65 -16 565 l0 559 138 0 139 0 6 -112z m189 102 l50 0 -5 -206 -6
-207 44 7 c132 18 301 169 386 344 l34 72 128 0 c70 0 127 -2 127 -5 0 -3 -20
-45 -44 -93 -97 -192 -233 -363 -356 -446 -96 -64 -291 -126 -397 -126 l-38 0
-3 336 c-2 306 -1 336 14 330 8 -3 38 -6 66 -6z m383 -57 c-50 -91 -127 -194
-181 -242 -43 -37 -81 -56 -87 -43 -1 4 -1 85 1 180 l3 172 151 0 150 0 -37
-67z"/>
</g>
</svg>
